/* XPM */
static char * foxiewire_config_xpm[] = {
"32 32 500 2",
"  	c None",
". 	c #702C13",
"+ 	c #783614",
"@ 	c #54290E",
"# 	c #84391F",
"$ 	c #B15223",
"% 	c #B6561F",
"& 	c #BB5B1C",
"* 	c #864313",
"= 	c #81361A",
"- 	c #98451A",
"; 	c #8B3F18",
"> 	c #9C4C1A",
", 	c #763D14",
"' 	c #CC6624",
") 	c #895D37",
"! 	c #D37447",
"~ 	c #E85F21",
"{ 	c #E5813A",
"] 	c #A65F2D",
"^ 	c #95461A",
"/ 	c #5D2511",
"( 	c #AD4E1D",
"_ 	c #56290E",
": 	c #833F16",
"< 	c #D46924",
"[ 	c #924A19",
"} 	c #DB7226",
"| 	c #703B13",
"1 	c #C56622",
"2 	c #7E2E1A",
"3 	c #AA4B20",
"4 	c #573B2F",
"5 	c #C05E3F",
"6 	c #D3511C",
"7 	c #C37944",
"8 	c #CE7B45",
"9 	c #873716",
"0 	c #652D14",
"a 	c #D97025",
"b 	c #AB4C1C",
"c 	c #D25F24",
"d 	c #CD6123",
"e 	c #C76222",
"f 	c #D76D25",
"g 	c #BD6220",
"h 	c #E07526",
"i 	c #712F17",
"j 	c #3E0911",
"k 	c #D36A25",
"l 	c #58312C",
"m 	c #67230F",
"n 	c #86422B",
"o 	c #B04827",
"p 	c #BB451F",
"q 	c #BA471C",
"r 	c #C9541F",
"s 	c #7E441F",
"t 	c #C16E2A",
"u 	c #D77329",
"v 	c #B74B1E",
"w 	c #DD6025",
"x 	c #E26727",
"y 	c #E36A26",
"z 	c #E36921",
"A 	c #C8621C",
"B 	c #542712",
"C 	c #15000B",
"D 	c #984A1D",
"E 	c #B35E1E",
"F 	c #5B2012",
"G 	c #612212",
"H 	c #86321B",
"I 	c #983619",
"J 	c #AD401E",
"K 	c #BC4721",
"L 	c #CC4C23",
"M 	c #DD5825",
"N 	c #C35621",
"O 	c #C25D21",
"P 	c #C26422",
"Q 	c #B95023",
"R 	c #E15E25",
"S 	c #E26025",
"T 	c #D1672A",
"U 	c #CF8D4C",
"V 	c #C77840",
"W 	c #8D4417",
"X 	c #B45C20",
"Y 	c #F7812A",
"Z 	c #643411",
"` 	c #C66722",
" .	c #AB591D",
"..	c #6F2916",
"+.	c #853219",
"@.	c #561F13",
"#.	c #792E19",
"$.	c #8E331B",
"%.	c #8E281B",
"&.	c #B44120",
"*.	c #E25527",
"=.	c #D35424",
"-.	c #D35D24",
";.	c #D26225",
">.	c #A33F18",
",.	c #E25A26",
"'.	c #CC5923",
").	c #BF7F40",
"!.	c #D6BC7B",
"~.	c #D1C3A5",
"{.	c #B65921",
"].	c #D16A22",
"^.	c #7F4216",
"/.	c #DA7125",
"(.	c #F57F2A",
"_.	c #4C1C10",
":.	c #2F130B",
"<.	c #6E2716",
"[.	c #892E1C",
"}.	c #A03C1D",
"|.	c #BA4521",
"1.	c #D65025",
"2.	c #D25524",
"3.	c #C45223",
"4.	c #9A3A1A",
"5.	c #C84C22",
"6.	c #B95222",
"7.	c #C05422",
"8.	c #D3561F",
"9.	c #D36A33",
"0.	c #CD6326",
"a.	c #D46E24",
"b.	c #E87828",
"c.	c #DE7326",
"d.	c #442425",
"e.	c #491D1B",
"f.	c #4C1A13",
"g.	c #321007",
"h.	c #A5401D",
"i.	c #C24822",
"j.	c #A7371F",
"k.	c #A7381F",
"l.	c #9B391B",
"m.	c #8C3518",
"n.	c #933A19",
"o.	c #AE491E",
"p.	c #E36123",
"q.	c #DD6425",
"r.	c #934C19",
"s.	c #DD7326",
"t.	c #E37627",
"u.	c #360D0E",
"v.	c #6B1317",
"w.	c #621016",
"x.	c #7E2D17",
"y.	c #8F351B",
"z.	c #7B2917",
"A.	c #9D2B1E",
"B.	c #9E291F",
"C.	c #9F2B1F",
"D.	c #91301A",
"E.	c #BD4721",
"F.	c #D04F23",
"G.	c #AD451D",
"H.	c #E25F26",
"I.	c #D65E25",
"J.	c #D06D24",
"K.	c #AF5B1E",
"L.	c #DF7426",
"M.	c #632313",
"N.	c #9F381E",
"O.	c #AA3C1F",
"P.	c #BE4224",
"Q.	c #7A2D17",
"R.	c #833119",
"S.	c #702016",
"T.	c #9C1C20",
"U.	c #951D1E",
"V.	c #8D1D1D",
"W.	c #8D3019",
"X.	c #D24F25",
"Y.	c #D05023",
"Z.	c #DC5825",
"`.	c #DF5E26",
" +	c #CE5E23",
".+	c #C65F22",
"++	c #914A19",
"@+	c #B86020",
"#+	c #ED7B29",
"$+	c #5B2711",
"%+	c #C46022",
"&+	c #CD6423",
"*+	c #C66222",
"=+	c #CC6324",
"-+	c #9F4D1B",
";+	c #702915",
">+	c #85151C",
",+	c #89191D",
"'+	c #741B17",
")+	c #A03B1C",
"!+	c #B0431F",
"~+	c #DA5225",
"{+	c #E05626",
"]+	c #E05A26",
"^+	c #D75A24",
"/+	c #B8501F",
"(+	c #D46024",
"_+	c #D06224",
":+	c #AB551E",
"<+	c #EB7629",
"[+	c #743B14",
"}+	c #32110E",
"|+	c #4D1C11",
"1+	c #6F2D14",
"2+	c #B15A1E",
"3+	c #D87125",
"4+	c #DA7226",
"5+	c #E77A28",
"6+	c #C36021",
"7+	c #731818",
"8+	c #751519",
"9+	c #772916",
"0+	c #A33E1E",
"a+	c #872217",
"b+	c #97321B",
"c+	c #CB4E24",
"d+	c #DF5626",
"e+	c #E45B27",
"f+	c #C15021",
"g+	c #C55621",
"h+	c #E76A27",
"i+	c #C75E22",
"j+	c #BD5A21",
"k+	c #7F3D16",
"l+	c #3E170E",
"m+	c #722B16",
"n+	c #B4591F",
"o+	c #C36521",
"p+	c #E27527",
"q+	c #D36E24",
"r+	c #BE6021",
"s+	c #751E19",
"t+	c #561911",
"u+	c #7E2816",
"v+	c #851C19",
"w+	c #871C1C",
"x+	c #AA3E1E",
"y+	c #C44A22",
"z+	c #CC4D23",
"A+	c #D85125",
"B+	c #E35727",
"C+	c #B5491F",
"D+	c #C15121",
"E+	c #E26227",
"F+	c #DC6526",
"G+	c #B25020",
"H+	c #94421B",
"I+	c #3D160D",
"J+	c #89351A",
"K+	c #833717",
"L+	c #863517",
"M+	c #BC4F22",
"N+	c #C55224",
"O+	c #92391B",
"P+	c #4E1810",
"Q+	c #702916",
"R+	c #712315",
"S+	c #8D2721",
"T+	c #8A301E",
"U+	c #A53F1E",
"V+	c #B94521",
"W+	c #C54A22",
"X+	c #CD4D24",
"Y+	c #DC5326",
"Z+	c #C54B22",
"`+	c #D55624",
" @	c #CC5523",
".@	c #D35E24",
"+@	c #BE5222",
"@@	c #C35124",
"#@	c #45170E",
"$@	c #4E180F",
"%@	c #641715",
"&@	c #6F1717",
"*@	c #671815",
"=@	c #32120A",
"-@	c #712A17",
";@	c #7F3019",
">@	c #7C3017",
",@	c #92371B",
"'@	c #A33D1E",
")@	c #9A3A1C",
"!@	c #A23D1D",
"~@	c #C54A23",
"{@	c #D14E24",
"]@	c #DE5526",
"^@	c #D15324",
"/@	c #A1411D",
"(@	c #AE461F",
"_@	c #C34B24",
":@	c #7A2F17",
"<@	c #260E08",
"[@	c #250C09",
"}@	c #541D13",
"|@	c #652415",
"1@	c #5A2012",
"2@	c #CB4D23",
"3@	c #D65125",
"4@	c #CD4E23",
"5@	c #9E371E",
"6@	c #A63A1F",
"7@	c #B74022",
"8@	c #A0391E",
"9@	c #390D0F",
"0@	c #480F13",
"a@	c #3E0D10",
"b@	c #27080A",
"c@	c #632512",
"d@	c #B03D20",
"e@	c #A63220",
"f@	c #AB3520",
"g@	c #AB3620",
"h@	c #AB3721",
"i@	c #380B0D",
"j@	c #71171A",
"k@	c #681518",
"l@	c #551113",
"m@	c #571114",
"n@	c #43190D",
"o@	c #B04220",
"p@	c #8E2A1B",
"q@	c #92301B",
"r@	c #A32D20",
"s@	c #A42E20",
"t@	c #A93021",
"u@	c #6A1416",
"v@	c #781619",
"w@	c #681315",
"x@	c #7D171A",
"y@	c #8C191D",
"z@	c #672613",
"A@	c #92291D",
"B@	c #9A221F",
"C@	c #93241D",
"D@	c #9A251F",
"E@	c #9D271F",
"F@	c #9E271F",
"G@	c #A22920",
"H@	c #4D140F",
"I@	c #761F18",
"J@	c #8E291C",
"K@	c #89281B",
"L@	c #922B1C",
"M@	c #9F2E1F",
"N@	c #A83021",
"O@	c #AC3221",
"P@	c #89291B",
"Q@	c #3B0D0C",
"R@	c #9B1D1F",
"S@	c #971E1E",
"T@	c #981E1F",
"U@	c #971F1E",
"V@	c #96201E",
"W@	c #98211F",
"X@	c #9B2220",
"Y@	c #A1421E",
"Z@	c #AA461F",
"`@	c #A7451E",
" #	c #BA4C22",
".#	c #C25023",
"+#	c #BF4F23",
"@#	c #C04F23",
"##	c #C85224",
"$#	c #973F1B",
"%#	c #84181B",
"&#	c #941B1F",
"*#	c #921B1E",
"=#	c #931B1E",
"-#	c #8D1B1D",
";#	c #8C1A1D",
">#	c #8D1B1C",
",#	c #C35C22",
"'#	c #A84F1D",
")#	c #AC511E",
"!#	c #B55520",
"~#	c #CE6124",
"{#	c #D26324",
"]#	c #B95820",
"^#	c #C95F23",
"/#	c #D66526",
"(#	c #C85E23",
"_#	c #743815",
":#	c #5C1013",
"<#	c #911B1F",
"[#	c #8B1A1D",
"}#	c #8F1B1E",
"|#	c #83181B",
"1#	c #89191C",
"2#	c #6D1417",
"3#	c #894518",
"4#	c #C26222",
"5#	c #D06924",
"6#	c #C06121",
"7#	c #D46B24",
"8#	c #DA6E25",
"9#	c #9E501C",
"0#	c #C36222",
"a#	c #BB5E21",
"b#	c #D16924",
"c#	c #A4551C",
"d#	c #551411",
"e#	c #87181D",
"f#	c #86191C",
"g#	c #7F181B",
"h#	c #6E1417",
"i#	c #5E3010",
"j#	c #844417",
"k#	c #964D1A",
"l#	c #E37527",
"m#	c #C76722",
"n#	c #BB6120",
"o#	c #E17427",
"p#	c #E07426",
"q#	c #D66F25",
"r#	c #CC6923",
"s#	c #EC7B28",
"t#	c #AA4C1F",
"u#	c #731219",
"v#	c #7A171A",
"w#	c #6D1517",
"x#	c #711618",
"y#	c #721618",
"z#	c #723B14",
"A#	c #EF7C29",
"B#	c #CA6922",
"C#	c #C56722",
"D#	c #C36422",
"E#	c #721918",
"F#	c #671317",
"G#	c #6C1517",
"H#	c #81191C",
"I#	c #BE6221",
"J#	c #EA7928",
"K#	c #C86822",
"L#	c #DF7326",
"M#	c #B75F20",
"N#	c #C86722",
"O#	c #721D18",
"P#	c #621216",
"Q#	c #76171A",
"R#	c #410D0E",
"S#	c #B0581E",
"T#	c #984D1A",
"U#	c #E17127",
"V#	c #D96D26",
"W#	c #D96D25",
"X#	c #CF6824",
"Y#	c #AF581E",
"Z#	c #BE5F21",
"`#	c #C96423",
" $	c #691917",
".$	c #711619",
"+$	c #410E0F",
"@$	c #98461B",
"#$	c #C45A23",
"$$	c #592910",
"%$	c #9E4A1C",
"&$	c #CD5F24",
"*$	c #D36126",
"=$	c #B25220",
"-$	c #B35320",
";$	c #7D3218",
">$	c #5B1115",
",$	c #2C090A",
"'$	c #541E10",
")$	c #853119",
"!$	c #CC4E26",
"~$	c #803218",
"{$	c #8E361A",
"]$	c #A8401F",
"^$	c #973A1C",
"/$	c #94391B",
"($	c #9C3D1D",
"_$	c #AE4420",
":$	c #C04A23",
"<$	c #BB4723",
"[$	c #551911",
"}$	c #7D2119",
"|$	c #92261D",
"1$	c #661B14",
"2$	c #4A150E",
"3$	c #7A1F18",
"4$	c #8E211C",
"5$	c #8D221C",
"6$	c #98241F",
"7$	c #9C261F",
"8$	c #97251E",
"9$	c #88231B",
"0$	c #4C0D10",
"a$	c #520E11",
"          .         + @                                         ",
"          # $ % & * = - ;   >             , '                   ",
"          ) ! ~ { ] ^ / ( _ : < [ }   | 1 2 3                   ",
"          4 5 6 7 8 9 0 a b c d e f g h i j k                   ",
"      l m n o p q r s t u v w x y z A B C D E                   ",
"    F G H I J K L M N O P Q R S T U V W X Y Z     `  .          ",
"    ..+.@.#.$.%.&.*.=.-.;.>.,.'.).!.~.{.].^.    /.(.            ",
"    _.    :.<.[.}.|.1.2.3.4.5.6.7.8.9.0.      a.b.c.            ",
"          d.e.f.g.  h.i.j.k.l.m.n.o.p.q.    r.s.t./.            ",
"          u.v.w.x.y.z.A.B.C.D.E.F.G.H.I.    J.K.s.L.            ",
"        M.N.O.P.Q.R.S.T.U.V.W.X.*.Y.Z.`.'. +.+++@+#+            ",
"        $+%+&+*+=+-+;+>+,+'+)+!+)+~+{+]+^+/+(+_+:+<+[+          ",
"      }+|+1+2+3+4+5+6+7+8+9+0+a+b+c+~+d+e+f+g+h+i+j+k+          ",
"        l+m+n+o+p+q+r+s+t+u+v+w+x+y+z+A+B+C+D+E+F+G+H+          ",
"        I+J+K+L+M+N+O+P+Q+R+S+T+U+V+W+X+Y+Z+`+ @.@+@@@          ",
"        #@$@  %@&@*@  =@-@;@>@,@'@)@!@~@{@z+]@^@/@(@_@:@        ",
"        <@              [@}@|@1@        E.2@3@4@5@6@7@8@        ",
"                        9@0@a@b@        c@~@!+d@e@f@g@h@        ",
"                      i@j@k@l@m@        n@o@p@q@C.r@s@t@        ",
"                      u@v@w@x@y@        z@A@B@C@D@E@F@G@H@      ",
"                  I@J@K@L@M@N@O@P@      Q@R@S@T@U@V@W@X@        ",
"                  Y@Z@`@ #.#+#@###$#      %#&#*#=#-#;#>#        ",
"                  ,#'#)#!#~#{#]#^#/#(#_#  :#<#[#}#|#1#2#        ",
"                  3#4#5#6#7#8#9#r+0#a#b#c#d#e#f#g#h#[#          ",
"                    i#j#k#l#m#n#o#p#q#r#s#t#u#v#w#x#y#          ",
"                        z#A#B#q#p#c.L.t.C#D#E#F#G#H#            ",
"                        I#J#K#s.c.c.L#t.M#N#O#P#Q#R#            ",
"                        k S#T#U#V#W#X#Y#Z#`# $.$+$              ",
"                      @$#$$$  %$&$*$=$-$(#;$>$,$                ",
"                  '$)$!$~${$]$^$/$($_$:$<$[$                    ",
"                  }$|$1$  2$3$4$5$6$7$8$9$                      ",
"                              0$a$0$                            "};
